<?xml version="1.0" encoding="UTF-8" standalone="no"?>
<!DOCTYPE svg PUBLIC "-//W3C//DTD SVG 1.1//EN"
 "http://www.w3.org/Graphics/SVG/1.1/DTD/svg11.dtd">
<!-- Generated by graphviz version 2.40.1 (20161225.0304)
 -->
<!-- Title: Graphical Class Hierarchy Pages: 1 -->
<svg width="456pt" height="826pt"
 viewBox="0.00 0.00 456.00 826.00" xmlns="http://www.w3.org/2000/svg" xmlns:xlink="http://www.w3.org/1999/xlink">
<g id="graph0" class="graph" transform="scale(1 1) rotate(0) translate(4 822)">
<title>Graphical Class Hierarchy</title>
<polygon fill="#ffffff" stroke="transparent" points="-4,4 -4,-822 452,-822 452,4 -4,4"/>
<!-- Node0 -->
<g id="node1" class="node">
<title>Node0</title>
<g id="a_node1"><a xlink:href="classast__node.html" target="_top" xlink:title="ast_node">
<polygon fill="#ffffff" stroke="#000000" points="0,-285.5 0,-304.5 56,-304.5 56,-285.5 0,-285.5"/>
<text text-anchor="middle" x="28" y="-292.5" font-family="Helvetica,sans-Serif" font-size="10.00" fill="#000000">ast_node</text>
</a>
</g>
</g>
<!-- Node1 -->
<g id="node2" class="node">
<title>Node1</title>
<g id="a_node2"><a xlink:href="classast__elsif.html" target="_top" xlink:title="ast_elsif">
<polygon fill="#ffffff" stroke="#000000" points="115,-418.5 115,-437.5 168,-437.5 168,-418.5 115,-418.5"/>
<text text-anchor="middle" x="141.5" y="-425.5" font-family="Helvetica,sans-Serif" font-size="10.00" fill="#000000">ast_elsif</text>
</a>
</g>
</g>
<!-- Node0&#45;&gt;Node1 -->
<g id="edge1" class="edge">
<title>Node0&#45;&gt;Node1</title>
<path fill="none" stroke="#191970" d="M34.1425,-314.2144C43.0781,-339.289 61.9521,-383.0227 92,-409 98.5457,-414.659 106.9584,-418.7238 114.9843,-421.6023"/>
<polygon fill="#191970" stroke="#191970" points="37.4471,-313.0606 30.9179,-304.7167 30.8187,-315.3111 37.4471,-313.0606"/>
</g>
<!-- Node2 -->
<g id="node3" class="node">
<title>Node2</title>
<g id="a_node3"><a xlink:href="classast__elsif__list.html" target="_top" xlink:title="ast_elsif_list">
<polygon fill="#ffffff" stroke="#000000" points="106,-380.5 106,-399.5 177,-399.5 177,-380.5 106,-380.5"/>
<text text-anchor="middle" x="141.5" y="-387.5" font-family="Helvetica,sans-Serif" font-size="10.00" fill="#000000">ast_elsif_list</text>
</a>
</g>
</g>
<!-- Node0&#45;&gt;Node2 -->
<g id="edge2" class="edge">
<title>Node0&#45;&gt;Node2</title>
<path fill="none" stroke="#191970" d="M39.2425,-313.0066C50.6755,-330.0177 69.8284,-355.2149 92,-371 97.2491,-374.7371 103.3287,-377.8511 109.392,-380.4033"/>
<polygon fill="#191970" stroke="#191970" points="42.102,-310.9837 33.715,-304.51 36.2344,-314.8009 42.102,-310.9837"/>
</g>
<!-- Node3 -->
<g id="node4" class="node">
<title>Node3</title>
<g id="a_node4"><a xlink:href="classast__expr__list.html" target="_top" xlink:title="ast_expr_list">
<polygon fill="#ffffff" stroke="#000000" points="105.5,-342.5 105.5,-361.5 177.5,-361.5 177.5,-342.5 105.5,-342.5"/>
<text text-anchor="middle" x="141.5" y="-349.5" font-family="Helvetica,sans-Serif" font-size="10.00" fill="#000000">ast_expr_list</text>
</a>
</g>
</g>
<!-- Node0&#45;&gt;Node3 -->
<g id="edge3" class="edge">
<title>Node0&#45;&gt;Node3</title>
<path fill="none" stroke="#191970" d="M51.0829,-309.9938C63.0286,-317.4189 78.0069,-326.2206 92,-333 99.0414,-336.4114 106.864,-339.6521 114.1728,-342.4593"/>
<polygon fill="#191970" stroke="#191970" points="52.9296,-307.0206 42.6056,-304.6404 49.192,-312.9392 52.9296,-307.0206"/>
</g>
<!-- Node4 -->
<g id="node5" class="node">
<title>Node4</title>
<g id="a_node5"><a xlink:href="classast__expression.html" target="_top" xlink:title="ast_expression">
<polygon fill="#ffffff" stroke="#000000" points="100,-304.5 100,-323.5 183,-323.5 183,-304.5 100,-304.5"/>
<text text-anchor="middle" x="141.5" y="-311.5" font-family="Helvetica,sans-Serif" font-size="10.00" fill="#000000">ast_expression</text>
</a>
</g>
</g>
<!-- Node0&#45;&gt;Node4 -->
<g id="edge4" class="edge">
<title>Node0&#45;&gt;Node4</title>
<path fill="none" stroke="#191970" d="M66.0253,-301.3655C76.8098,-303.1708 88.6103,-305.1462 99.6096,-306.9875"/>
<polygon fill="#191970" stroke="#191970" points="66.4968,-297.8958 56.0562,-299.6966 65.3411,-304.7997 66.4968,-297.8958"/>
</g>
<!-- Node28 -->
<g id="node29" class="node">
<title>Node28</title>
<g id="a_node29"><a xlink:href="classast__functionhead.html" target="_top" xlink:title="ast_functionhead">
<polygon fill="#ffffff" stroke="#000000" points="96,-266.5 96,-285.5 187,-285.5 187,-266.5 96,-266.5"/>
<text text-anchor="middle" x="141.5" y="-273.5" font-family="Helvetica,sans-Serif" font-size="10.00" fill="#000000">ast_functionhead</text>
</a>
</g>
</g>
<!-- Node0&#45;&gt;Node28 -->
<g id="edge28" class="edge">
<title>Node0&#45;&gt;Node28</title>
<path fill="none" stroke="#191970" d="M66.0053,-288.6379C75.5145,-287.046 85.8148,-285.3218 95.6598,-283.6737"/>
<polygon fill="#191970" stroke="#191970" points="65.3411,-285.2003 56.0562,-290.3034 66.4968,-292.1042 65.3411,-285.2003"/>
</g>
<!-- Node29 -->
<g id="node30" class="node">
<title>Node29</title>
<g id="a_node30"><a xlink:href="classast__procedurehead.html" target="_top" xlink:title="ast_procedurehead">
<polygon fill="#ffffff" stroke="#000000" points="92,-228.5 92,-247.5 191,-247.5 191,-228.5 92,-228.5"/>
<text text-anchor="middle" x="141.5" y="-235.5" font-family="Helvetica,sans-Serif" font-size="10.00" fill="#000000">ast_procedurehead</text>
</a>
</g>
</g>
<!-- Node0&#45;&gt;Node29 -->
<g id="edge29" class="edge">
<title>Node0&#45;&gt;Node29</title>
<path fill="none" stroke="#191970" d="M51.0829,-280.0062C63.0286,-272.5811 78.0069,-263.7794 92,-257 99.0414,-253.5886 106.864,-250.3479 114.1728,-247.5407"/>
<polygon fill="#191970" stroke="#191970" points="49.192,-277.0608 42.6056,-285.3596 52.9296,-282.9794 49.192,-277.0608"/>
</g>
<!-- Node30 -->
<g id="node31" class="node">
<title>Node30</title>
<g id="a_node31"><a xlink:href="classast__statement.html" target="_top" xlink:title="ast_statement">
<polygon fill="#ffffff" stroke="#000000" points="102,-114.5 102,-133.5 181,-133.5 181,-114.5 102,-114.5"/>
<text text-anchor="middle" x="141.5" y="-121.5" font-family="Helvetica,sans-Serif" font-size="10.00" fill="#000000">ast_statement</text>
</a>
</g>
</g>
<!-- Node0&#45;&gt;Node30 -->
<g id="edge30" class="edge">
<title>Node0&#45;&gt;Node30</title>
<path fill="none" stroke="#191970" d="M40.1238,-276.7342C64.1134,-240.5913 116.8932,-161.0729 135.143,-133.5774"/>
<polygon fill="#191970" stroke="#191970" points="37.0415,-275.049 34.4275,-285.3163 42.8737,-278.9202 37.0415,-275.049"/>
</g>
<!-- Node36 -->
<g id="node37" class="node">
<title>Node36</title>
<g id="a_node37"><a xlink:href="classast__stmt__list.html" target="_top" xlink:title="ast_stmt_list">
<polygon fill="#ffffff" stroke="#000000" points="105,-76.5 105,-95.5 178,-95.5 178,-76.5 105,-76.5"/>
<text text-anchor="middle" x="141.5" y="-83.5" font-family="Helvetica,sans-Serif" font-size="10.00" fill="#000000">ast_stmt_list</text>
</a>
</g>
</g>
<!-- Node0&#45;&gt;Node36 -->
<g id="edge36" class="edge">
<title>Node0&#45;&gt;Node36</title>
<path fill="none" stroke="#191970" d="M29.2694,-274.9696C32.7313,-236.8791 45.4886,-153.4873 92,-105 95.6959,-101.1471 100.2579,-98.0648 105.104,-95.6016"/>
<polygon fill="#191970" stroke="#191970" points="25.756,-275.0054 28.4664,-285.2477 32.7348,-275.5507 25.756,-275.0054"/>
</g>
<!-- Node5 -->
<g id="node6" class="node">
<title>Node5</title>
<g id="a_node6"><a xlink:href="classast__binaryoperation.html" target="_top" xlink:title="ast_binaryoperation">
<polygon fill="#ffffff" stroke="#000000" points="227,-646.5 227,-665.5 328,-665.5 328,-646.5 227,-646.5"/>
<text text-anchor="middle" x="277.5" y="-653.5" font-family="Helvetica,sans-Serif" font-size="10.00" fill="#000000">ast_binaryoperation</text>
</a>
</g>
</g>
<!-- Node4&#45;&gt;Node5 -->
<g id="edge5" class="edge">
<title>Node4&#45;&gt;Node5</title>
<path fill="none" stroke="#191970" d="M187.2099,-329.2711C188.5629,-330.4252 189.8337,-331.666 191,-333 236.6953,-385.2656 209.1618,-417.9064 227,-485 243.4641,-546.9256 266.3208,-620.5098 274.4674,-646.41"/>
<polygon fill="#191970" stroke="#191970" points="188.9699,-326.2369 178.7177,-323.5643 185.0656,-332.047 188.9699,-326.2369"/>
</g>
<!-- Node14 -->
<g id="node15" class="node">
<title>Node14</title>
<g id="a_node15"><a xlink:href="classast__binaryrelation.html" target="_top" xlink:title="ast_binaryrelation">
<polygon fill="#ffffff" stroke="#000000" points="231,-456.5 231,-475.5 324,-475.5 324,-456.5 231,-456.5"/>
<text text-anchor="middle" x="277.5" y="-463.5" font-family="Helvetica,sans-Serif" font-size="10.00" fill="#000000">ast_binaryrelation</text>
</a>
</g>
</g>
<!-- Node4&#45;&gt;Node14 -->
<g id="edge14" class="edge">
<title>Node4&#45;&gt;Node14</title>
<path fill="none" stroke="#191970" d="M186.5421,-328.9496C188.1316,-330.1947 189.6279,-331.542 191,-333 227.4149,-371.692 190.4568,-408.4292 227,-447 230.6723,-450.876 235.2128,-453.968 240.0529,-456.4328"/>
<polygon fill="#191970" stroke="#191970" points="188.2876,-325.9126 177.9621,-323.5388 184.5537,-331.8336 188.2876,-325.9126"/>
</g>
<!-- Node19 -->
<g id="node20" class="node">
<title>Node19</title>
<g id="a_node20"><a xlink:href="classast__cast.html" target="_top" xlink:title="ast_cast">
<polygon fill="#ffffff" stroke="#000000" points="250.5,-418.5 250.5,-437.5 304.5,-437.5 304.5,-418.5 250.5,-418.5"/>
<text text-anchor="middle" x="277.5" y="-425.5" font-family="Helvetica,sans-Serif" font-size="10.00" fill="#000000">ast_cast</text>
</a>
</g>
</g>
<!-- Node4&#45;&gt;Node19 -->
<g id="edge19" class="edge">
<title>Node4&#45;&gt;Node19</title>
<path fill="none" stroke="#191970" d="M185.5099,-328.6408C187.4545,-329.974 189.2995,-331.4239 191,-333 218.412,-358.4071 199.5038,-383.684 227,-409 233.5467,-415.0276 242.189,-419.1981 250.4699,-422.0598"/>
<polygon fill="#191970" stroke="#191970" points="186.9083,-325.4099 176.4848,-323.5126 183.4501,-331.496 186.9083,-325.4099"/>
</g>
<!-- Node20 -->
<g id="node21" class="node">
<title>Node20</title>
<g id="a_node21"><a xlink:href="classast__functioncall.html" target="_top" xlink:title="ast_functioncall">
<polygon fill="#ffffff" stroke="#000000" points="235,-380.5 235,-399.5 320,-399.5 320,-380.5 235,-380.5"/>
<text text-anchor="middle" x="277.5" y="-387.5" font-family="Helvetica,sans-Serif" font-size="10.00" fill="#000000">ast_functioncall</text>
</a>
</g>
</g>
<!-- Node4&#45;&gt;Node20 -->
<g id="edge20" class="edge">
<title>Node4&#45;&gt;Node20</title>
<path fill="none" stroke="#191970" d="M181.818,-327.6844C185.0166,-329.3034 188.1199,-331.0739 191,-333 210.3384,-345.9329 207.6188,-358.1313 227,-371 232.6187,-374.7307 239.0716,-377.8658 245.4448,-380.4452"/>
<polygon fill="#191970" stroke="#191970" points="183.2094,-324.4723 172.6575,-323.5196 180.3122,-330.8446 183.2094,-324.4723"/>
</g>
<!-- Node21 -->
<g id="node22" class="node">
<title>Node21</title>
<g id="a_node22"><a xlink:href="classast__integer.html" target="_top" xlink:title="ast_integer">
<polygon fill="#ffffff" stroke="#000000" points="245,-342.5 245,-361.5 310,-361.5 310,-342.5 245,-342.5"/>
<text text-anchor="middle" x="277.5" y="-349.5" font-family="Helvetica,sans-Serif" font-size="10.00" fill="#000000">ast_integer</text>
</a>
</g>
</g>
<!-- Node4&#45;&gt;Node21 -->
<g id="edge21" class="edge">
<title>Node4&#45;&gt;Node21</title>
<path fill="none" stroke="#191970" d="M185.5531,-326.309C204.7513,-331.6731 226.8688,-337.8531 244.5999,-342.8073"/>
<polygon fill="#191970" stroke="#191970" points="186.3915,-322.9092 175.8185,-323.589 184.5078,-329.651 186.3915,-322.9092"/>
</g>
<!-- Node22 -->
<g id="node23" class="node">
<title>Node22</title>
<g id="a_node23"><a xlink:href="classast__lvalue.html" target="_top" xlink:title="ast_lvalue">
<polygon fill="#ffffff" stroke="#000000" points="247,-304.5 247,-323.5 308,-323.5 308,-304.5 247,-304.5"/>
<text text-anchor="middle" x="277.5" y="-311.5" font-family="Helvetica,sans-Serif" font-size="10.00" fill="#000000">ast_lvalue</text>
</a>
</g>
</g>
<!-- Node4&#45;&gt;Node22 -->
<g id="edge22" class="edge">
<title>Node4&#45;&gt;Node22</title>
<path fill="none" stroke="#191970" d="M193.1304,-314C211.1389,-314 230.776,-314 246.5704,-314"/>
<polygon fill="#191970" stroke="#191970" points="193.0435,-310.5001 183.0435,-314 193.0434,-317.5001 193.0435,-310.5001"/>
</g>
<!-- Node25 -->
<g id="node26" class="node">
<title>Node25</title>
<g id="a_node26"><a xlink:href="classast__not.html" target="_top" xlink:title="ast_not">
<polygon fill="#ffffff" stroke="#000000" points="253,-266.5 253,-285.5 302,-285.5 302,-266.5 253,-266.5"/>
<text text-anchor="middle" x="277.5" y="-273.5" font-family="Helvetica,sans-Serif" font-size="10.00" fill="#000000">ast_not</text>
</a>
</g>
</g>
<!-- Node4&#45;&gt;Node25 -->
<g id="edge25" class="edge">
<title>Node4&#45;&gt;Node25</title>
<path fill="none" stroke="#191970" d="M185.703,-301.6492C207.8971,-295.4479 233.9613,-288.1652 252.6346,-282.9477"/>
<polygon fill="#191970" stroke="#191970" points="184.5078,-298.349 175.8185,-304.411 186.3915,-305.0908 184.5078,-298.349"/>
</g>
<!-- Node26 -->
<g id="node27" class="node">
<title>Node26</title>
<g id="a_node27"><a xlink:href="classast__real.html" target="_top" xlink:title="ast_real">
<polygon fill="#ffffff" stroke="#000000" points="252,-228.5 252,-247.5 303,-247.5 303,-228.5 252,-228.5"/>
<text text-anchor="middle" x="277.5" y="-235.5" font-family="Helvetica,sans-Serif" font-size="10.00" fill="#000000">ast_real</text>
</a>
</g>
</g>
<!-- Node4&#45;&gt;Node26 -->
<g id="edge26" class="edge">
<title>Node4&#45;&gt;Node26</title>
<path fill="none" stroke="#191970" d="M181.818,-300.3156C185.0166,-298.6966 188.1199,-296.9261 191,-295 210.3384,-282.0671 207.6188,-269.8687 227,-257 234.4916,-252.0257 243.4661,-248.1103 251.7578,-245.1591"/>
<polygon fill="#191970" stroke="#191970" points="180.3122,-297.1554 172.6575,-304.4804 183.2094,-303.5277 180.3122,-297.1554"/>
</g>
<!-- Node27 -->
<g id="node28" class="node">
<title>Node27</title>
<g id="a_node28"><a xlink:href="classast__uminus.html" target="_top" xlink:title="ast_uminus">
<polygon fill="#ffffff" stroke="#000000" points="244,-190.5 244,-209.5 311,-209.5 311,-190.5 244,-190.5"/>
<text text-anchor="middle" x="277.5" y="-197.5" font-family="Helvetica,sans-Serif" font-size="10.00" fill="#000000">ast_uminus</text>
</a>
</g>
</g>
<!-- Node4&#45;&gt;Node27 -->
<g id="edge27" class="edge">
<title>Node4&#45;&gt;Node27</title>
<path fill="none" stroke="#191970" d="M185.5099,-299.3592C187.4545,-298.026 189.2995,-296.5761 191,-295 218.412,-269.5929 199.5038,-244.316 227,-219 231.8239,-214.5586 237.7855,-211.1255 243.902,-208.4813"/>
<polygon fill="#191970" stroke="#191970" points="183.4501,-296.504 176.4848,-304.4874 186.9083,-302.5901 183.4501,-296.504"/>
</g>
<!-- Node6 -->
<g id="node7" class="node">
<title>Node6</title>
<g id="a_node7"><a xlink:href="classast__add.html" target="_top" xlink:title="ast_add">
<polygon fill="#ffffff" stroke="#000000" points="380.5,-798.5 380.5,-817.5 431.5,-817.5 431.5,-798.5 380.5,-798.5"/>
<text text-anchor="middle" x="406" y="-805.5" font-family="Helvetica,sans-Serif" font-size="10.00" fill="#000000">ast_add</text>
</a>
</g>
</g>
<!-- Node5&#45;&gt;Node6 -->
<g id="edge6" class="edge">
<title>Node5&#45;&gt;Node6</title>
<path fill="none" stroke="#191970" d="M285.5368,-674.8736C298.3871,-703.0809 326.0318,-756.3986 364,-789 368.7361,-793.0666 374.4851,-796.419 380.1902,-799.1148"/>
<polygon fill="#191970" stroke="#191970" points="288.7263,-673.4318 281.4802,-665.7024 282.3246,-676.2635 288.7263,-673.4318"/>
</g>
<!-- Node7 -->
<g id="node8" class="node">
<title>Node7</title>
<g id="a_node8"><a xlink:href="classast__and.html" target="_top" xlink:title="ast_and">
<polygon fill="#ffffff" stroke="#000000" points="380.5,-760.5 380.5,-779.5 431.5,-779.5 431.5,-760.5 380.5,-760.5"/>
<text text-anchor="middle" x="406" y="-767.5" font-family="Helvetica,sans-Serif" font-size="10.00" fill="#000000">ast_and</text>
</a>
</g>
</g>
<!-- Node5&#45;&gt;Node7 -->
<g id="edge7" class="edge">
<title>Node5&#45;&gt;Node7</title>
<path fill="none" stroke="#191970" d="M290.1174,-673.7819C305.5798,-694.5374 333.5086,-728.8376 364,-751 368.92,-754.5761 374.6204,-757.7034 380.2043,-760.3333"/>
<polygon fill="#191970" stroke="#191970" points="292.8258,-671.5558 284.104,-665.5407 287.171,-675.6819 292.8258,-671.5558"/>
</g>
<!-- Node8 -->
<g id="node9" class="node">
<title>Node8</title>
<g id="a_node9"><a xlink:href="classast__divide.html" target="_top" xlink:title="ast_divide">
<polygon fill="#ffffff" stroke="#000000" points="375.5,-722.5 375.5,-741.5 436.5,-741.5 436.5,-722.5 375.5,-722.5"/>
<text text-anchor="middle" x="406" y="-729.5" font-family="Helvetica,sans-Serif" font-size="10.00" fill="#000000">ast_divide</text>
</a>
</g>
</g>
<!-- Node5&#45;&gt;Node8 -->
<g id="edge8" class="edge">
<title>Node5&#45;&gt;Node8</title>
<path fill="none" stroke="#191970" d="M298.7848,-671.3915C315.9432,-683.4604 340.9302,-700.2846 364,-713 370.0277,-716.3223 376.7454,-719.5566 383.0093,-722.3872"/>
<polygon fill="#191970" stroke="#191970" points="300.7565,-668.4989 290.5772,-665.5606 296.7023,-674.2054 300.7565,-668.4989"/>
</g>
<!-- Node9 -->
<g id="node10" class="node">
<title>Node9</title>
<g id="a_node10"><a xlink:href="classast__idiv.html" target="_top" xlink:title="ast_idiv">
<polygon fill="#ffffff" stroke="#000000" points="381,-684.5 381,-703.5 431,-703.5 431,-684.5 381,-684.5"/>
<text text-anchor="middle" x="406" y="-691.5" font-family="Helvetica,sans-Serif" font-size="10.00" fill="#000000">ast_idiv</text>
</a>
</g>
</g>
<!-- Node5&#45;&gt;Node9 -->
<g id="edge9" class="edge">
<title>Node5&#45;&gt;Node9</title>
<path fill="none" stroke="#191970" d="M319.5639,-668.4391C339.8314,-674.4326 363.4567,-681.4191 380.8806,-686.5717"/>
<polygon fill="#191970" stroke="#191970" points="320.508,-665.0686 309.926,-665.589 318.5229,-671.7812 320.508,-665.0686"/>
</g>
<!-- Node10 -->
<g id="node11" class="node">
<title>Node10</title>
<g id="a_node11"><a xlink:href="classast__mod.html" target="_top" xlink:title="ast_mod">
<polygon fill="#ffffff" stroke="#000000" points="379,-646.5 379,-665.5 433,-665.5 433,-646.5 379,-646.5"/>
<text text-anchor="middle" x="406" y="-653.5" font-family="Helvetica,sans-Serif" font-size="10.00" fill="#000000">ast_mod</text>
</a>
</g>
</g>
<!-- Node5&#45;&gt;Node10 -->
<g id="edge10" class="edge">
<title>Node5&#45;&gt;Node10</title>
<path fill="none" stroke="#191970" d="M338.5143,-656C352.6653,-656 367.0262,-656 378.8417,-656"/>
<polygon fill="#191970" stroke="#191970" points="338.2866,-652.5001 328.2866,-656 338.2866,-659.5001 338.2866,-652.5001"/>
</g>
<!-- Node11 -->
<g id="node12" class="node">
<title>Node11</title>
<g id="a_node12"><a xlink:href="classast__mult.html" target="_top" xlink:title="ast_mult">
<polygon fill="#ffffff" stroke="#000000" points="379,-608.5 379,-627.5 433,-627.5 433,-608.5 379,-608.5"/>
<text text-anchor="middle" x="406" y="-615.5" font-family="Helvetica,sans-Serif" font-size="10.00" fill="#000000">ast_mult</text>
</a>
</g>
</g>
<!-- Node5&#45;&gt;Node11 -->
<g id="edge11" class="edge">
<title>Node5&#45;&gt;Node11</title>
<path fill="none" stroke="#191970" d="M319.7619,-643.5023C339.1876,-637.7578 361.6626,-631.1114 378.7976,-626.0443"/>
<polygon fill="#191970" stroke="#191970" points="318.5229,-640.2188 309.926,-646.411 320.508,-646.9314 318.5229,-640.2188"/>
</g>
<!-- Node12 -->
<g id="node13" class="node">
<title>Node12</title>
<g id="a_node13"><a xlink:href="classast__or.html" target="_top" xlink:title="ast_or">
<polygon fill="#ffffff" stroke="#000000" points="384,-570.5 384,-589.5 428,-589.5 428,-570.5 384,-570.5"/>
<text text-anchor="middle" x="406" y="-577.5" font-family="Helvetica,sans-Serif" font-size="10.00" fill="#000000">ast_or</text>
</a>
</g>
</g>
<!-- Node5&#45;&gt;Node12 -->
<g id="edge12" class="edge">
<title>Node5&#45;&gt;Node12</title>
<path fill="none" stroke="#191970" d="M298.7848,-640.6085C315.9432,-628.5396 340.9302,-611.7154 364,-599 370.3081,-595.5232 377.3718,-592.1427 383.8802,-589.2205"/>
<polygon fill="#191970" stroke="#191970" points="296.7023,-637.7946 290.5772,-646.4394 300.7565,-643.5011 296.7023,-637.7946"/>
</g>
<!-- Node13 -->
<g id="node14" class="node">
<title>Node13</title>
<g id="a_node14"><a xlink:href="classast__sub.html" target="_top" xlink:title="ast_sub">
<polygon fill="#ffffff" stroke="#000000" points="380.5,-532.5 380.5,-551.5 431.5,-551.5 431.5,-532.5 380.5,-532.5"/>
<text text-anchor="middle" x="406" y="-539.5" font-family="Helvetica,sans-Serif" font-size="10.00" fill="#000000">ast_sub</text>
</a>
</g>
</g>
<!-- Node5&#45;&gt;Node13 -->
<g id="edge13" class="edge">
<title>Node5&#45;&gt;Node13</title>
<path fill="none" stroke="#191970" d="M290.1174,-638.2181C305.5798,-617.4626 333.5086,-583.1624 364,-561 368.92,-557.4239 374.6204,-554.2966 380.2043,-551.6667"/>
<polygon fill="#191970" stroke="#191970" points="287.171,-636.3181 284.104,-646.4593 292.8258,-640.4442 287.171,-636.3181"/>
</g>
<!-- Node15 -->
<g id="node16" class="node">
<title>Node15</title>
<g id="a_node16"><a xlink:href="classast__equal.html" target="_top" xlink:title="ast_equal">
<polygon fill="#ffffff" stroke="#000000" points="376.5,-494.5 376.5,-513.5 435.5,-513.5 435.5,-494.5 376.5,-494.5"/>
<text text-anchor="middle" x="406" y="-501.5" font-family="Helvetica,sans-Serif" font-size="10.00" fill="#000000">ast_equal</text>
</a>
</g>
</g>
<!-- Node14&#45;&gt;Node15 -->
<g id="edge15" class="edge">
<title>Node14&#45;&gt;Node15</title>
<path fill="none" stroke="#191970" d="M319.5919,-478.4474C338.1001,-483.9206 359.4038,-490.2206 376.2269,-495.1955"/>
<polygon fill="#191970" stroke="#191970" points="320.508,-475.0686 309.926,-475.589 318.5229,-481.7812 320.508,-475.0686"/>
</g>
<!-- Node16 -->
<g id="node17" class="node">
<title>Node16</title>
<g id="a_node17"><a xlink:href="classast__greaterthan.html" target="_top" xlink:title="ast_greaterthan">
<polygon fill="#ffffff" stroke="#000000" points="364,-456.5 364,-475.5 448,-475.5 448,-456.5 364,-456.5"/>
<text text-anchor="middle" x="406" y="-463.5" font-family="Helvetica,sans-Serif" font-size="10.00" fill="#000000">ast_greaterthan</text>
</a>
</g>
</g>
<!-- Node14&#45;&gt;Node16 -->
<g id="edge16" class="edge">
<title>Node14&#45;&gt;Node16</title>
<path fill="none" stroke="#191970" d="M334.4093,-466C344.2727,-466 354.3699,-466 363.7547,-466"/>
<polygon fill="#191970" stroke="#191970" points="334.255,-462.5001 324.255,-466 334.2549,-469.5001 334.255,-462.5001"/>
</g>
<!-- Node17 -->
<g id="node18" class="node">
<title>Node17</title>
<g id="a_node18"><a xlink:href="classast__lessthan.html" target="_top" xlink:title="ast_lessthan">
<polygon fill="#ffffff" stroke="#000000" points="370,-418.5 370,-437.5 442,-437.5 442,-418.5 370,-418.5"/>
<text text-anchor="middle" x="406" y="-425.5" font-family="Helvetica,sans-Serif" font-size="10.00" fill="#000000">ast_lessthan</text>
</a>
</g>
</g>
<!-- Node14&#45;&gt;Node17 -->
<g id="edge17" class="edge">
<title>Node14&#45;&gt;Node17</title>
<path fill="none" stroke="#191970" d="M319.8891,-453.4647C337.37,-448.2952 357.3022,-442.4009 373.5844,-437.5859"/>
<polygon fill="#191970" stroke="#191970" points="318.5229,-450.2188 309.926,-456.411 320.508,-456.9314 318.5229,-450.2188"/>
</g>
<!-- Node18 -->
<g id="node19" class="node">
<title>Node18</title>
<g id="a_node19"><a xlink:href="classast__notequal.html" target="_top" xlink:title="ast_notequal">
<polygon fill="#ffffff" stroke="#000000" points="370,-380.5 370,-399.5 442,-399.5 442,-380.5 370,-380.5"/>
<text text-anchor="middle" x="406" y="-387.5" font-family="Helvetica,sans-Serif" font-size="10.00" fill="#000000">ast_notequal</text>
</a>
</g>
</g>
<!-- Node14&#45;&gt;Node18 -->
<g id="edge18" class="edge">
<title>Node14&#45;&gt;Node18</title>
<path fill="none" stroke="#191970" d="M318.7685,-452.3014C321.9839,-450.6889 325.1028,-448.9236 328,-447 347.3812,-434.1313 345.047,-422.4914 364,-409 369.0855,-405.3799 374.9711,-402.202 380.6971,-399.5328"/>
<polygon fill="#191970" stroke="#191970" points="317.2395,-449.1513 309.5552,-456.4452 320.1108,-455.5353 317.2395,-449.1513"/>
</g>
<!-- Node23 -->
<g id="node24" class="node">
<title>Node23</title>
<g id="a_node24"><a xlink:href="classast__id.html" target="_top" xlink:title="ast_id">
<polygon fill="#ffffff" stroke="#000000" points="384.5,-323.5 384.5,-342.5 427.5,-342.5 427.5,-323.5 384.5,-323.5"/>
<text text-anchor="middle" x="406" y="-330.5" font-family="Helvetica,sans-Serif" font-size="10.00" fill="#000000">ast_id</text>
</a>
</g>
</g>
<!-- Node22&#45;&gt;Node23 -->
<g id="edge23" class="edge">
<title>Node22&#45;&gt;Node23</title>
<path fill="none" stroke="#191970" d="M318.3167,-320.0352C340.2132,-323.2728 366.3173,-327.1325 384.3175,-329.794"/>
<polygon fill="#191970" stroke="#191970" points="318.6834,-316.5514 308.279,-318.551 317.6594,-323.4761 318.6834,-316.5514"/>
</g>
<!-- Node24 -->
<g id="node25" class="node">
<title>Node24</title>
<g id="a_node25"><a xlink:href="classast__indexed.html" target="_top" xlink:title="ast_indexed">
<polygon fill="#ffffff" stroke="#000000" points="371.5,-285.5 371.5,-304.5 440.5,-304.5 440.5,-285.5 371.5,-285.5"/>
<text text-anchor="middle" x="406" y="-292.5" font-family="Helvetica,sans-Serif" font-size="10.00" fill="#000000">ast_indexed</text>
</a>
</g>
</g>
<!-- Node22&#45;&gt;Node24 -->
<g id="edge24" class="edge">
<title>Node22&#45;&gt;Node24</title>
<path fill="none" stroke="#191970" d="M318.5087,-307.9365C335.5443,-305.4176 355.0992,-302.5262 371.3953,-300.1166"/>
<polygon fill="#191970" stroke="#191970" points="317.6594,-304.5239 308.279,-309.449 318.6834,-311.4486 317.6594,-304.5239"/>
</g>
<!-- Node31 -->
<g id="node32" class="node">
<title>Node31</title>
<g id="a_node32"><a xlink:href="classast__assign.html" target="_top" xlink:title="ast_assign">
<polygon fill="#ffffff" stroke="#000000" points="245.5,-152.5 245.5,-171.5 309.5,-171.5 309.5,-152.5 245.5,-152.5"/>
<text text-anchor="middle" x="277.5" y="-159.5" font-family="Helvetica,sans-Serif" font-size="10.00" fill="#000000">ast_assign</text>
</a>
</g>
</g>
<!-- Node30&#45;&gt;Node31 -->
<g id="edge31" class="edge">
<title>Node30&#45;&gt;Node31</title>
<path fill="none" stroke="#191970" d="M185.6281,-136.3299C204.9771,-141.7362 227.2797,-147.9679 245.065,-152.9373"/>
<polygon fill="#191970" stroke="#191970" points="186.3915,-132.9092 175.8185,-133.589 184.5078,-139.651 186.3915,-132.9092"/>
</g>
<!-- Node32 -->
<g id="node33" class="node">
<title>Node32</title>
<g id="a_node33"><a xlink:href="classast__if.html" target="_top" xlink:title="ast_if">
<polygon fill="#ffffff" stroke="#000000" points="257,-114.5 257,-133.5 298,-133.5 298,-114.5 257,-114.5"/>
<text text-anchor="middle" x="277.5" y="-121.5" font-family="Helvetica,sans-Serif" font-size="10.00" fill="#000000">ast_if</text>
</a>
</g>
</g>
<!-- Node30&#45;&gt;Node32 -->
<g id="edge32" class="edge">
<title>Node30&#45;&gt;Node32</title>
<path fill="none" stroke="#191970" d="M191.3569,-124C213.9872,-124 239.51,-124 256.8607,-124"/>
<polygon fill="#191970" stroke="#191970" points="191.2025,-120.5001 181.2024,-124 191.2024,-127.5001 191.2025,-120.5001"/>
</g>
<!-- Node33 -->
<g id="node34" class="node">
<title>Node33</title>
<g id="a_node34"><a xlink:href="classast__procedurecall.html" target="_top" xlink:title="ast_procedurecall">
<polygon fill="#ffffff" stroke="#000000" points="231,-76.5 231,-95.5 324,-95.5 324,-76.5 231,-76.5"/>
<text text-anchor="middle" x="277.5" y="-83.5" font-family="Helvetica,sans-Serif" font-size="10.00" fill="#000000">ast_procedurecall</text>
</a>
</g>
</g>
<!-- Node30&#45;&gt;Node33 -->
<g id="edge33" class="edge">
<title>Node30&#45;&gt;Node33</title>
<path fill="none" stroke="#191970" d="M185.5866,-111.6817C204.2722,-106.4607 225.7183,-100.4684 243.1924,-95.5859"/>
<polygon fill="#191970" stroke="#191970" points="184.5078,-108.349 175.8185,-114.411 186.3915,-115.0908 184.5078,-108.349"/>
</g>
<!-- Node34 -->
<g id="node35" class="node">
<title>Node34</title>
<g id="a_node35"><a xlink:href="classast__return.html" target="_top" xlink:title="ast_return">
<polygon fill="#ffffff" stroke="#000000" points="247.5,-38.5 247.5,-57.5 307.5,-57.5 307.5,-38.5 247.5,-38.5"/>
<text text-anchor="middle" x="277.5" y="-45.5" font-family="Helvetica,sans-Serif" font-size="10.00" fill="#000000">ast_return</text>
</a>
</g>
</g>
<!-- Node30&#45;&gt;Node34 -->
<g id="edge34" class="edge">
<title>Node30&#45;&gt;Node34</title>
<path fill="none" stroke="#191970" d="M181.818,-110.3156C185.0166,-108.6966 188.1199,-106.9261 191,-105 210.3384,-92.0671 207.6188,-79.8687 227,-67 233.165,-62.9066 240.3342,-59.5302 247.3006,-56.8181"/>
<polygon fill="#191970" stroke="#191970" points="180.3122,-107.1554 172.6575,-114.4804 183.2094,-113.5277 180.3122,-107.1554"/>
</g>
<!-- Node35 -->
<g id="node36" class="node">
<title>Node35</title>
<g id="a_node36"><a xlink:href="classast__while.html" target="_top" xlink:title="ast_while">
<polygon fill="#ffffff" stroke="#000000" points="248.5,-.5 248.5,-19.5 306.5,-19.5 306.5,-.5 248.5,-.5"/>
<text text-anchor="middle" x="277.5" y="-7.5" font-family="Helvetica,sans-Serif" font-size="10.00" fill="#000000">ast_while</text>
</a>
</g>
</g>
<!-- Node30&#45;&gt;Node35 -->
<g id="edge35" class="edge">
<title>Node30&#45;&gt;Node35</title>
<path fill="none" stroke="#191970" d="M185.5099,-109.3592C187.4545,-108.026 189.2995,-106.5761 191,-105 218.412,-79.5929 199.5038,-54.316 227,-29 232.9954,-23.48 240.7483,-19.5174 248.3716,-16.6913"/>
<polygon fill="#191970" stroke="#191970" points="183.4501,-106.504 176.4848,-114.4874 186.9083,-112.5901 183.4501,-106.504"/>
</g>
</g>
</svg>
